<?xml version="1.0" encoding="UTF-8"?>
<svg xmlns="http://www.w3.org/2000/svg" xmlns:xlink="http://www.w3.org/1999/xlink" width="50px" height="px" viewBox="0 0 50 50" version="1.1">
<defs>
<clipPath id="clip1">
  <path d="M 1 1 L 49 1 L 49 41.5 L 1 41.5 Z M 1 1 "/>
</clipPath>
<clipPath id="clip2">
  <path d="M 7 28 L 43 28 L 43 49 L 7 49 Z M 7 28 "/>
</clipPath>
<clipPath id="clip3">
  <path d="M 48.332031 25 C 48.332031 12.113281 37.886719 1.667969 25 1.667969 C 12.113281 1.667969 1.667969 12.113281 1.667969 25 C 1.667969 37.886719 12.113281 48.332031 25 48.332031 C 37.886719 48.332031 48.332031 37.886719 48.332031 25 Z M 48.332031 25 "/>
</clipPath>
</defs>
<g id="surface1">
<g clip-path="url(#clip1)" clip-rule="nonzero">
<path style=" stroke:none;fill-rule:nonzero;fill:rgb(0%,0%,0%);fill-opacity:1;" d="M 48.332031 25 C 48.332031 12.113281 37.886719 1.667969 25 1.667969 C 12.113281 1.667969 1.667969 12.113281 1.667969 25 C 1.667969 37.886719 12.113281 48.332031 25 48.332031 C 37.886719 48.332031 48.332031 37.886719 48.332031 25 Z M 48.332031 25 "/>
</g>
<path style=" stroke:none;fill-rule:nonzero;fill:rgb(100%,100%,100%);fill-opacity:1;" d="M 34.582031 19.167969 C 34.582031 13.875 30.292969 9.582031 25 9.582031 C 19.707031 9.582031 15.417969 13.875 15.417969 19.167969 C 15.417969 24.460938 19.707031 28.75 25 28.75 C 30.292969 28.75 34.582031 24.460938 34.582031 19.167969 Z M 34.582031 19.167969 "/>
<g clip-path="url(#clip2)" clip-rule="nonzero">
<g clip-path="url(#clip3)" clip-rule="nonzero">
<path style=" stroke:none;fill-rule:nonzero;fill:rgb(100%,100%,100%);fill-opacity:1;" d="M 42.082031 45.832031 C 42.082031 36.398438 34.433594 28.75 25 28.75 C 15.566406 28.75 7.917969 36.398438 7.917969 45.832031 C 7.917969 55.269531 15.566406 62.917969 25 62.917969 C 34.433594 62.917969 42.082031 55.269531 42.082031 45.832031 Z M 42.082031 45.832031 "/>
</g>
</g>
</g>
</svg>
