<?xml version="1.0" encoding="UTF-8"?>
<svg xmlns="http://www.w3.org/2000/svg" xmlns:xlink="http://www.w3.org/1999/xlink" width="50px" height="px" viewBox="0 0 50 50" version="1.1">
<g id="surface1">
<path style=" stroke:none;fill-rule:nonzero;fill:rgb(0%,0%,0%);fill-opacity:1;" d="M 39.515625 30.972656 C 38.492188 29.90625 37.257812 29.335938 35.949219 29.335938 C 34.652344 29.335938 33.40625 29.898438 32.339844 30.960938 L 29.003906 34.285156 C 28.730469 34.140625 28.457031 34 28.191406 33.863281 C 27.8125 33.675781 27.453125 33.496094 27.148438 33.304688 C 24.023438 31.320312 21.183594 28.734375 18.460938 25.390625 C 17.144531 23.722656 16.257812 22.320312 15.613281 20.894531 C 16.480469 20.105469 17.28125 19.28125 18.0625 18.488281 C 18.355469 18.195312 18.652344 17.886719 18.949219 17.59375 C 21.164062 15.375 21.164062 12.503906 18.949219 10.289062 L 16.066406 7.410156 C 15.738281 7.082031 15.402344 6.742188 15.085938 6.40625 C 14.453125 5.75 13.789062 5.078125 13.101562 4.445312 C 12.078125 3.429688 10.855469 2.890625 9.566406 2.890625 C 8.28125 2.890625 7.035156 3.429688 5.980469 4.445312 C 5.96875 4.453125 5.96875 4.453125 5.957031 4.464844 L 2.371094 8.085938 C 1.019531 9.433594 0.25 11.082031 0.078125 12.992188 C -0.171875 16.074219 0.734375 18.941406 1.429688 20.820312 C 3.140625 25.433594 5.695312 29.707031 9.503906 34.285156 C 14.125 39.804688 19.6875 44.164062 26.039062 47.234375 C 28.46875 48.386719 31.707031 49.746094 35.328125 49.980469 C 35.546875 49.988281 35.78125 50 35.992188 50 C 38.429688 50 40.476562 49.125 42.082031 47.382812 C 42.089844 47.363281 42.113281 47.351562 42.121094 47.332031 C 42.671875 46.664062 43.304688 46.0625 43.96875 45.421875 C 44.421875 44.988281 44.886719 44.535156 45.339844 44.058594 C 46.386719 42.972656 46.933594 41.707031 46.933594 40.40625 C 46.933594 39.097656 46.375 37.84375 45.308594 36.789062 Z M 43.292969 42.085938 C 43.28125 42.085938 43.28125 42.097656 43.292969 42.085938 C 42.882812 42.527344 42.460938 42.929688 42.007812 43.371094 C 41.320312 44.027344 40.625 44.714844 39.96875 45.484375 C 38.902344 46.625 37.648438 47.160156 36 47.160156 C 35.84375 47.160156 35.675781 47.160156 35.515625 47.152344 C 32.382812 46.949219 29.46875 45.726562 27.285156 44.679688 C 21.3125 41.789062 16.066406 37.683594 11.710938 32.480469 C 8.109375 28.144531 5.703125 24.136719 4.109375 19.828125 C 3.128906 17.203125 2.769531 15.15625 2.929688 13.222656 C 3.035156 11.988281 3.507812 10.964844 4.386719 10.089844 L 7.984375 6.492188 C 8.5 6.003906 9.050781 5.742188 9.585938 5.742188 C 10.253906 5.742188 10.789062 6.140625 11.128906 6.480469 C 11.140625 6.492188 11.148438 6.5 11.160156 6.511719 C 11.804688 7.113281 12.417969 7.734375 13.058594 8.402344 C 13.386719 8.738281 13.722656 9.074219 14.0625 9.425781 L 16.941406 12.304688 C 18.0625 13.425781 18.0625 14.457031 16.941406 15.578125 C 16.636719 15.882812 16.339844 16.1875 16.035156 16.484375 C 15.148438 17.390625 14.304688 18.234375 13.386719 19.058594 C 13.367188 19.082031 13.34375 19.089844 13.335938 19.113281 C 12.425781 20.019531 12.59375 20.90625 12.785156 21.507812 C 12.796875 21.539062 12.804688 21.570312 12.816406 21.601562 C 13.566406 23.417969 14.621094 25.125 16.226562 27.164062 L 16.234375 27.175781 C 19.148438 30.761719 22.21875 33.558594 25.605469 35.699219 C 26.039062 35.976562 26.484375 36.195312 26.90625 36.40625 C 27.285156 36.597656 27.644531 36.777344 27.949219 36.96875 C 27.992188 36.988281 28.035156 37.019531 28.078125 37.042969 C 28.433594 37.21875 28.773438 37.304688 29.121094 37.304688 C 29.996094 37.304688 30.546875 36.757812 30.726562 36.578125 L 34.335938 32.96875 C 34.691406 32.609375 35.261719 32.175781 35.929688 32.175781 C 36.582031 32.175781 37.121094 32.585938 37.449219 32.945312 C 37.457031 32.957031 37.457031 32.957031 37.46875 32.96875 L 43.28125 38.78125 C 44.371094 39.859375 44.371094 40.964844 43.292969 42.085938 Z M 43.292969 42.085938 "/>
<path style=" stroke:none;fill-rule:nonzero;fill:rgb(0%,0%,0%);fill-opacity:1;" d="M 27.019531 11.894531 C 29.785156 12.359375 32.296875 13.667969 34.300781 15.671875 C 36.308594 17.675781 37.605469 20.1875 38.082031 22.953125 C 38.195312 23.648438 38.796875 24.136719 39.484375 24.136719 C 39.570312 24.136719 39.640625 24.125 39.726562 24.113281 C 40.507812 23.988281 41.023438 23.25 40.898438 22.46875 C 40.328125 19.121094 38.746094 16.074219 36.328125 13.65625 C 33.914062 11.238281 30.863281 9.65625 27.515625 9.085938 C 26.734375 8.960938 26.007812 9.476562 25.871094 10.246094 C 25.734375 11.019531 26.242188 11.765625 27.019531 11.894531 Z M 27.019531 11.894531 "/>
<path style=" stroke:none;fill-rule:nonzero;fill:rgb(0%,0%,0%);fill-opacity:1;" d="M 49.941406 22.054688 C 49.003906 16.546875 46.40625 11.535156 42.417969 7.546875 C 38.429688 3.558594 33.417969 0.960938 27.90625 0.0234375 C 27.136719 -0.117188 26.410156 0.414062 26.273438 1.183594 C 26.144531 1.964844 26.664062 2.691406 27.441406 2.828125 C 32.359375 3.664062 36.847656 5.996094 40.414062 9.550781 C 43.980469 13.117188 46.300781 17.601562 47.136719 22.519531 C 47.25 23.21875 47.851562 23.703125 48.539062 23.703125 C 48.621094 23.703125 48.695312 23.691406 48.78125 23.679688 C 49.550781 23.566406 50.078125 22.828125 49.941406 22.054688 Z M 49.941406 22.054688 "/>
</g>
</svg>
